<?xml version="1.0" encoding="utf-8"?>
<!-- Generator: Adobe Illustrator 27.3.0, SVG Export Plug-In . SVG Version: 6.00 Build 0)  -->
<svg version="1.1" id="Layer_1" xmlns="http://www.w3.org/2000/svg" xmlns:xlink="http://www.w3.org/1999/xlink" x="0px" y="0px"
	 viewBox="0 0 770 770" style="enable-background:new 0 0 770 770;" xml:space="preserve">
<path id="Kate_Nielen_Photography-15" d="M770,385c0.1-50.9-19.4-99.9-54.4-136.9c-3-105.7-88-190.6-193.6-193.6
	c-76.9-72.6-197-72.6-273.9,0c-105.7,3-190.6,88-193.6,193.6c-72.6,76.9-72.6,197,0,273.9c1.4,50.9,22.3,99.3,58.3,135.3l0,0
	c36,36,84.4,56.9,135.3,58.3c76.9,72.6,197,72.6,273.9,0c50.9-1.4,99.3-22.3,135.3-58.3l0,0c36.1-36,56.9-84.4,58.3-135.3
	C750.6,484.9,770.1,435.9,770,385z"/>
</svg>
